<svg width="31" height="25" viewBox="0 0 31 25" fill="none" xmlns="http://www.w3.org/2000/svg">
<path d="M26.2299 2.07765C24.2665 1.10916 22.1408 0.406216 19.9264 7.18534e-05C19.907 -0.000585167 19.8877 0.0032702 19.8698 0.011367C19.852 0.0194637 19.836 0.0316052 19.8231 0.0469349C19.5574 0.562425 19.2473 1.23412 19.0407 1.74961C16.692 1.37471 14.3034 1.37471 11.9548 1.74961C11.7481 1.2185 11.4381 0.562425 11.1576 0.0469349C11.1428 0.0156931 11.0985 7.18534e-05 11.0543 7.18534e-05C8.83991 0.406216 6.7289 1.10916 4.75075 2.07765C4.73599 2.07765 4.72123 2.09327 4.70647 2.10889C0.691118 8.46661 -0.416055 14.6525 0.130151 20.7759C0.130151 20.8071 0.144913 20.8384 0.174437 20.854C2.83165 22.9159 5.38553 24.1656 7.90989 24.9935C7.95417 25.0091 7.99846 24.9935 8.01322 24.9623C8.60372 24.1031 9.13516 23.1971 9.59279 22.2442C9.62232 22.1818 9.59279 22.1193 9.53374 22.1037C8.69229 21.76 7.89513 21.3539 7.11272 20.8852C7.05367 20.854 7.05367 20.7603 7.09796 20.7134C7.26035 20.5884 7.42273 20.4478 7.58512 20.3229C7.61464 20.2916 7.65893 20.2916 7.68845 20.3073C12.7667 22.7597 18.2435 22.7597 23.2627 20.3073C23.2922 20.2916 23.3365 20.2916 23.366 20.3229C23.5284 20.4635 23.6908 20.5884 23.8532 20.729C23.9122 20.7759 23.9122 20.8696 23.8384 20.9008C23.0708 21.3851 22.2589 21.7756 21.4174 22.1193C21.3584 22.1349 21.3436 22.213 21.3584 22.2599C21.8307 23.2127 22.3622 24.1188 22.9379 24.9779C22.9822 24.9935 23.0265 25.0091 23.0708 24.9935C25.6099 24.1656 28.1638 22.9159 30.821 20.854C30.8505 20.8384 30.8653 20.8071 30.8653 20.7759C31.5148 13.6996 29.7876 7.56059 26.289 2.10889C26.2742 2.09327 26.2594 2.07765 26.2299 2.07765ZM10.3604 17.0425C8.83991 17.0425 7.57035 15.5585 7.57035 13.7309C7.57035 11.9032 8.81039 10.4192 10.3604 10.4192C11.9252 10.4192 13.1653 11.9188 13.1505 13.7309C13.1505 15.5585 11.9105 17.0425 10.3604 17.0425ZM20.6498 17.0425C19.1292 17.0425 17.8597 15.5585 17.8597 13.7309C17.8597 11.9032 19.0997 10.4192 20.6498 10.4192C22.2146 10.4192 23.4546 11.9188 23.4398 13.7309C23.4398 15.5585 22.2146 17.0425 20.6498 17.0425Z" fill="white"/>
</svg>
