<svg width="19" height="18" viewBox="0 0 19 18" fill="none" xmlns="http://www.w3.org/2000/svg">
<circle cx="9.72363" cy="9" r="8.64" stroke="#008170" strokeWidth="0.72"/>
<mask id="path-2-outside-1_291_19673" maskUnits="userSpaceOnUse" x="8.2832" y="3.51953" width="3" height="10" fill="black">
<rect fill="white" x="8.2832" y="3.51953" width="3" height="10"/>
<path d="M9.11161 12.5195V6.62862H10.0167V12.5195H9.11161ZM9.57184 5.6468C9.39542 5.6468 9.24329 5.58672 9.11545 5.46655C8.99016 5.34638 8.92752 5.20192 8.92752 5.03317C8.92752 4.86442 8.99016 4.71996 9.11545 4.59979C9.24329 4.47962 9.39542 4.41953 9.57184 4.41953C9.74826 4.41953 9.89911 4.47962 10.0244 4.59979C10.1522 4.71996 10.2162 4.86442 10.2162 5.03317C10.2162 5.20192 10.1522 5.34638 10.0244 5.46655C9.89911 5.58672 9.74826 5.6468 9.57184 5.6468Z"/>
</mask>
<path d="M9.11161 12.5195V6.62862H10.0167V12.5195H9.11161ZM9.57184 5.6468C9.39542 5.6468 9.24329 5.58672 9.11545 5.46655C8.99016 5.34638 8.92752 5.20192 8.92752 5.03317C8.92752 4.86442 8.99016 4.71996 9.11545 4.59979C9.24329 4.47962 9.39542 4.41953 9.57184 4.41953C9.74826 4.41953 9.89911 4.47962 10.0244 4.59979C10.1522 4.71996 10.2162 4.86442 10.2162 5.03317C10.2162 5.20192 10.1522 5.34638 10.0244 5.46655C9.89911 5.58672 9.74826 5.6468 9.57184 5.6468Z" fill="#008170"/>
<path d="M9.11161 12.5195H8.79018V12.841H9.11161V12.5195ZM9.11161 6.62862V6.30719H8.79018V6.62862H9.11161ZM10.0167 6.62862H10.3382V6.30719H10.0167V6.62862ZM10.0167 12.5195V12.841H10.3382V12.5195H10.0167ZM9.11545 5.46655L8.89294 5.69853L8.8953 5.70075L9.11545 5.46655ZM9.11545 4.59979L8.89529 4.36557L8.89295 4.36782L9.11545 4.59979ZM10.0244 4.59979L9.80188 4.83177L9.80425 4.83399L10.0244 4.59979ZM10.0244 5.46655L9.80424 5.23233L9.8019 5.23458L10.0244 5.46655ZM9.43304 12.5195V6.62862H8.79018V12.5195H9.43304ZM9.11161 6.95005H10.0167V6.30719H9.11161V6.95005ZM9.6953 6.62862V12.5195H10.3382V6.62862H9.6953ZM10.0167 12.1981H9.11161V12.841H10.0167V12.1981ZM9.57184 5.32538C9.47673 5.32538 9.40346 5.29614 9.3356 5.23235L8.8953 5.70075C9.08311 5.8773 9.31411 5.96823 9.57184 5.96823V5.32538ZM9.33795 5.23458C9.27382 5.17306 9.24895 5.11155 9.24895 5.03317H8.60609C8.60609 5.29228 8.70651 5.51969 8.89295 5.69852L9.33795 5.23458ZM9.24895 5.03317C9.24895 4.95478 9.27382 4.89327 9.33795 4.83176L8.89295 4.36782C8.70651 4.54664 8.60609 4.77405 8.60609 5.03317H9.24895ZM9.3356 4.83399C9.40346 4.77019 9.47673 4.74096 9.57184 4.74096V4.0981C9.31411 4.0981 9.08311 4.18904 8.8953 4.36558L9.3356 4.83399ZM9.57184 4.74096C9.66683 4.74096 9.73754 4.77002 9.8019 4.83176L10.2469 4.36782C10.0607 4.18921 9.82969 4.0981 9.57184 4.0981V4.74096ZM9.80425 4.83399C9.87035 4.89613 9.89473 4.95701 9.89473 5.03317H10.5376C10.5376 4.77183 10.4341 4.54379 10.2445 4.36558L9.80425 4.83399ZM9.89473 5.03317C9.89473 5.10933 9.87035 5.17021 9.80425 5.23235L10.2445 5.70075C10.4341 5.52255 10.5376 5.29451 10.5376 5.03317H9.89473ZM9.8019 5.23458C9.73754 5.29631 9.66683 5.32538 9.57184 5.32538V5.96823C9.82969 5.96823 10.0607 5.87713 10.2469 5.69852L9.8019 5.23458Z" fill="#008170" mask="url(#path-2-outside-1_291_19673)"/>
</svg>
